<svg width="24" height="24" fill="none" xmlns="http://www.w3.org/2000/svg"><path fill-rule="evenodd" clip-rule="evenodd" d="M15.511 3c.168 1.093-.295 2.164-.906 2.922-.654.813-1.78 1.442-2.872 1.409-.2-1.047.311-2.125.932-2.85.68-.8 1.848-1.414 2.846-1.481Zm3.28 15.389c.562-.829.772-1.247 1.209-2.183-3.177-1.16-3.686-5.501-.542-7.167-.959-1.156-2.307-1.826-3.579-1.826-.916 0-1.545.23-2.115.44-.476.173-.912.333-1.443.333-.573 0-1.08-.175-1.612-.358-.585-.201-1.198-.412-1.958-.412-1.428 0-2.947.838-3.91 2.27-1.355 2.02-1.124 5.813 1.072 9.046.785 1.157 1.834 2.456 3.206 2.468.569.005.948-.158 1.358-.335.469-.202.979-.422 1.861-.426.889-.005 1.39.217 1.853.422.4.177.77.342 1.334.336 1.373-.01 2.48-1.451 3.265-2.608Z" fill="#fff"/></svg>