<svg width="32" height="32" fill="none" xmlns="http://www.w3.org/2000/svg"><path d="M16 32c8.837 0 16-7.163 16-16S24.837 0 16 0 0 7.163 0 16s7.163 16 16 16Z" fill="#F3BA2F"/><path d="M12.653 14.625 16 11.278l3.347 3.35 1.947-1.947L16 7.384l-5.294 5.294 1.947 1.947ZM7.385 15.998l1.946-1.946 1.947 1.946-1.946 1.947-1.947-1.947ZM12.653 17.375 16 20.722l3.347-3.35 1.95 1.947h-.003L16 24.616l-5.294-5.294-.003-.003 1.95-1.944ZM20.72 16.002l1.948-1.947 1.947 1.947-1.947 1.947-1.947-1.947Z" fill="#fff"/><path d="M17.975 16 16 14.022l-1.46 1.462-.168.166-.347.347-.003.003.003.003L16 17.978 17.975 16Z" fill="#fff"/></svg>