<svg width="25" height="24" fill="none" xmlns="http://www.w3.org/2000/svg"><path d="M22.596 6.464a7.989 7.989 0 0 1-1.848 1.778v.55a12.19 12.19 0 0 1-3.62 8.69A12.179 12.179 0 0 1 8.397 21a12.217 12.217 0 0 1-5.442-1.259.25.25 0 0 1-.15-.23v-.11a.26.26 0 0 1 .26-.26 8.844 8.844 0 0 0 5.112-1.837 4.363 4.363 0 0 1-3.884-2.558.26.26 0 0 1 .26-.36c.51.052 1.025.004 1.517-.14a4.355 4.355 0 0 1-3.444-3.805.26.26 0 0 1 .359-.26c.497.22 1.034.335 1.578.34a4.277 4.277 0 0 1-1.708-4.935.54.54 0 0 1 .909-.18A12.339 12.339 0 0 0 12.16 9.28a4 4 0 0 1-.12-1 4.352 4.352 0 0 1 7.499-2.937 8.675 8.675 0 0 0 2.387-.828.17.17 0 0 1 .18 0 .17.17 0 0 1 0 .18 4.365 4.365 0 0 1-1.758 1.998 8.565 8.565 0 0 0 1.997-.48.16.16 0 0 1 .18 0 .17.17 0 0 1 .07.25Z" fill="#575A63"/></svg>