<svg width="200" height="200" fill="none" xmlns="http://www.w3.org/2000/svg"><path d="M200 100c0 55.228-44.772 100-100 100S0 155.228 0 100 44.772 0 100 0s100 44.772 100 100Zm-175 0c0 41.421 33.579 75 75 75s75-33.579 75-75-33.579-75-75-75-75 33.579-75 75Z" fill="#fff" fill-opacity=".1"/><path d="M100 0a100.002 100.002 0 0 1 95.106 69.098l-23.777 7.726A75 75 0 0 0 100 25V0ZM195.106 69.098a100.004 100.004 0 0 1-71.761 128.139 100.004 100.004 0 0 1-54.247-2.131l7.726-23.777a75 75 0 0 0 94.505-94.505l23.777-7.726ZM69.098 195.106a100.006 100.006 0 0 1-50-36.327l20.226-14.695a75 75 0 0 0 37.5 27.245l-7.726 23.777Z" fill="#5FE9D0"/><path d="M19.098 158.779A100.002 100.002 0 0 1 .788 87.467L25.592 90.6a75 75 0 0 0 13.733 53.484l-20.226 14.695Z" fill="#5FE9D0"/><path d="M68.27 5.168A100 100 0 0 1 100.698.002l-.174 25a75.002 75.002 0 0 0-24.322 3.874L68.27 5.168Z" fill="#fff" fill-opacity=".1"/></svg>