<svg width="25" height="24" viewBox="0 0 25 24" fill="none" xmlns="http://www.w3.org/2000/svg">
<g id="BSC">
<path id="Vector" d="M12.5 28C21.3366 28 28.5 20.8366 28.5 12C28.5 3.16344 21.3366 -4 12.5 -4C3.66344 -4 -3.5 3.16344 -3.5 12C-3.5 20.8366 3.66344 28 12.5 28Z" fill="#F3BA2F"/>
<path id="Vector_2" d="M9.15317 10.625L12.5 7.27815L15.8469 10.6281L17.7938 8.68127L12.5 3.3844L7.2063 8.67815L9.15317 10.625Z" fill="white"/>
<path id="Vector_3" d="M3.88477 11.9985L5.83149 10.0517L7.77827 11.9984L5.83155 13.9452L3.88477 11.9985Z" fill="white"/>
<path id="Vector_4" d="M9.15312 13.375L12.5 16.7219L15.8469 13.3719L17.7969 15.3188H17.7938L12.5 20.6156L7.20625 15.3219L7.20312 15.3188L9.15312 13.375Z" fill="white"/>
<path id="Vector_5" d="M17.2209 12.0018L19.1677 10.055L21.1145 12.0017L19.1677 13.9485L17.2209 12.0018Z" fill="white"/>
<path id="Vector_6" d="M14.4751 12L12.5001 10.0219L11.0407 11.4844L10.872 11.65L10.5251 11.9969L10.522 12L10.5251 12.0031L12.5001 13.9781L14.4751 12Z" fill="white"/>
</g>
</svg>
