<svg width="25" height="24" viewBox="0 0 25 24" fill="none" xmlns="http://www.w3.org/2000/svg">
<g id="ETH">
<path id="Vector" d="M12.5 28C21.3366 28 28.5 20.8366 28.5 12C28.5 3.16344 21.3366 -4 12.5 -4C3.66344 -4 -3.5 3.16344 -3.5 12C-3.5 20.8366 3.66344 28 12.5 28Z" fill="white"/>
<g id="Layer_x0020_1">
<g id="_1421394342400">
<g id="Group">
<path id="Vector_2" d="M12.8057 2.8006L12.6836 3.21534V15.2492L12.8057 15.371L18.3915 12.0691L12.8057 2.8006Z" fill="#343434"/>
<path id="Vector_3" d="M12.8057 2.8006L7.21973 12.0691L12.8057 15.371V9.53009V2.8006Z" fill="#8C8C8C"/>
<path id="Vector_4" d="M12.8054 16.4286L12.7366 16.5125V20.7991L12.8054 21L18.3947 13.1284L12.8054 16.4286Z" fill="#3C3C3B"/>
<path id="Vector_5" d="M12.8057 21V16.4286L7.21973 13.1284L12.8057 21Z" fill="#8C8C8C"/>
<path id="Vector_6" d="M12.8057 15.371L18.3915 12.0691L12.8057 9.53009V15.371Z" fill="#141414"/>
<path id="Vector_7" d="M7.21973 12.0691L12.8057 15.371V9.53009L7.21973 12.0691Z" fill="#393939"/>
</g>
</g>
</g>
</g>
</svg>
