<svg width="70" height="32" fill="none" xmlns="http://www.w3.org/2000/svg"><path d="M5.6 26.92h9.2v4.44H0V3.44h5.6v23.48ZM20.2 6.56c-.987 0-1.814-.307-2.48-.92-.64-.64-.96-1.427-.96-2.36 0-.933.32-1.707.96-2.32C18.385.32 19.212 0 20.2 0c.986 0 1.8.32 2.44.96.666.613 1 1.387 1 2.32 0 .933-.334 1.72-1 2.36-.64.613-1.454.92-2.44.92Zm2.76 2.64v22.16h-5.6V9.2h5.6ZM37.652 13.8h-3.88v17.56h-5.68V13.8h-2.52V9.2h2.52V8.08c0-2.72.774-4.72 2.32-6 1.547-1.28 3.88-1.88 7-1.8V5c-1.36-.027-2.306.2-2.84.68-.533.48-.8 1.347-.8 2.6v.92h3.88v4.6ZM60.881 19.8c0 .8-.053 1.52-.16 2.16h-16.2c.134 1.6.694 2.853 1.68 3.76.987.907 2.2 1.36 3.64 1.36 2.08 0 3.56-.893 4.44-2.68h6.04c-.64 2.133-1.866 3.893-3.68 5.28-1.813 1.36-4.04 2.04-6.68 2.04-2.133 0-4.053-.467-5.76-1.4-1.68-.96-3-2.307-3.96-4.04-.933-1.733-1.4-3.733-1.4-6 0-2.293.467-4.307 1.4-6.04.934-1.733 2.24-3.067 3.92-4 1.68-.933 3.614-1.4 5.8-1.4 2.107 0 3.987.453 5.64 1.36a9.382 9.382 0 0 1 3.88 3.88c.934 1.653 1.4 3.56 1.4 5.72Zm-5.8-1.6c-.026-1.44-.546-2.587-1.56-3.44-1.013-.88-2.253-1.32-3.72-1.32-1.386 0-2.56.427-3.52 1.28-.933.827-1.506 1.987-1.72 3.48h10.52ZM66.449 31.64c-1.014 0-1.854-.307-2.52-.92-.64-.64-.96-1.427-.96-2.36 0-.933.32-1.707.96-2.32.666-.64 1.506-.96 2.52-.96.986 0 1.8.32 2.44.96.64.613.96 1.387.96 2.32 0 .933-.32 1.72-.96 2.36-.64.613-1.454.92-2.44.92Z" fill="#fff"/></svg>