<svg width="50" height="50" viewBox="0 0 50 50" fill="none" xmlns="http://www.w3.org/2000/svg">
<path d="M25 0C38.8086 0 50 11.1914 50 25C50 38.8086 38.8086 50 25 50C11.1914 50 0 38.8086 0 25C0 11.1914 11.1914 0 25 0Z" fill="#D7D7D7"/>
<path d="M39.6594 10L26.9263 19.3569L29.2414 13.8585L39.6594 10Z" fill="#E17726" stroke="#E17726" stroke-width="0.25" stroke-linecap="round" stroke-linejoin="round"/>
<path d="M10.4312 10L22.9714 19.4534L20.7527 13.8585L10.4312 10Z" fill="#E27625" stroke="#E27625" stroke-width="0.25" stroke-linecap="round" stroke-linejoin="round"/>
<path d="M35.1252 31.8007L31.749 36.9132L38.9838 38.9389L41.0095 31.8971L35.1252 31.8007Z" fill="#E27625" stroke="#E27625" stroke-width="0.25" stroke-linecap="round" stroke-linejoin="round"/>
<path d="M9.08057 31.8971L11.1063 38.9389L18.341 36.9132L14.9648 31.8007L9.08057 31.8971Z" fill="#E27625" stroke="#E27625" stroke-width="0.25" stroke-linecap="round" stroke-linejoin="round"/>
<path d="M17.9549 23.0225L15.9292 26.0129L23.0675 26.3023L22.8745 18.5852L17.9549 23.0225Z" fill="#E27625" stroke="#E27625" stroke-width="0.25" stroke-linecap="round" stroke-linejoin="round"/>
<path d="M32.1353 23.0225L27.1192 18.5852L26.9263 26.3987L34.0645 26.1093L32.1353 23.0225Z" fill="#E27625" stroke="#E27625" stroke-width="0.25" stroke-linecap="round" stroke-linejoin="round"/>
<path d="M18.3408 36.9132L22.6817 34.791L18.9196 31.8971L18.3408 36.9132Z" fill="#E27625" stroke="#E27625" stroke-width="0.25" stroke-linecap="round" stroke-linejoin="round"/>
<path d="M27.4082 34.791L31.749 36.9132L31.1703 31.8971L27.4082 34.791Z" fill="#E27625" stroke="#E27625" stroke-width="0.25" stroke-linecap="round" stroke-linejoin="round"/>
<path d="M31.749 36.9132L27.4082 34.791L27.7941 37.5884V38.746L31.749 36.9132Z" fill="#D5BFB2" stroke="#D5BFB2" stroke-width="0.25" stroke-linecap="round" stroke-linejoin="round"/>
<path d="M18.3408 36.9132L22.3923 38.8424V37.6849L22.7781 34.8875L18.3408 36.9132Z" fill="#D5BFB2" stroke="#D5BFB2" stroke-width="0.25" stroke-linecap="round" stroke-linejoin="round"/>
<path d="M22.3924 30.0642L18.8232 29.0031L21.3313 27.8456L22.3924 30.0642Z" fill="#233447" stroke="#233447" stroke-width="0.25" stroke-linecap="round" stroke-linejoin="round"/>
<path d="M27.6016 30.0642L28.6627 27.8456L31.1707 29.0031L27.6016 30.0642Z" fill="#233447" stroke="#233447" stroke-width="0.25" stroke-linecap="round" stroke-linejoin="round"/>
<path d="M18.3411 36.9132L18.9198 31.8007L14.9648 31.8971L18.3411 36.9132Z" fill="#CC6228" stroke="#CC6228" stroke-width="0.25" stroke-linecap="round" stroke-linejoin="round"/>
<path d="M31.0737 31.8007L31.6525 36.9132L35.0287 31.8971L31.0737 31.8007Z" fill="#CC6228" stroke="#CC6228" stroke-width="0.25" stroke-linecap="round" stroke-linejoin="round"/>
<path d="M34.1607 26.1093L27.0225 26.3986L27.6977 30.0642L28.7588 27.8456L31.2668 29.0031L34.1607 26.1093Z" fill="#CC6228" stroke="#CC6228" stroke-width="0.25" stroke-linecap="round" stroke-linejoin="round"/>
<path d="M18.8231 29.0031L21.3311 27.8456L22.3922 30.0642L23.0675 26.3986L15.9292 26.1093L18.8231 29.0031Z" fill="#CC6228" stroke="#CC6228" stroke-width="0.25" stroke-linecap="round" stroke-linejoin="round"/>
<path d="M15.9292 26.1093L18.9196 31.9935L18.8231 29.0996L15.9292 26.1093Z" fill="#E27525" stroke="#E27525" stroke-width="0.25" stroke-linecap="round" stroke-linejoin="round"/>
<path d="M31.2669 29.0033L31.1704 31.8972L34.1608 26.0129L31.2669 29.0033Z" fill="#E27525" stroke="#E27525" stroke-width="0.25" stroke-linecap="round" stroke-linejoin="round"/>
<path d="M23.0673 26.3987L22.3921 30.0643L23.2603 34.4051L23.4532 28.7138L23.0673 26.3987Z" fill="#E27525" stroke="#E27525" stroke-width="0.25" stroke-linecap="round" stroke-linejoin="round"/>
<path d="M26.9264 26.3987L26.5405 28.7138L26.7335 34.4051L27.6016 30.0643L26.9264 26.3987Z" fill="#E27525" stroke="#E27525" stroke-width="0.25" stroke-linecap="round" stroke-linejoin="round"/>
<path d="M27.6011 30.0643L26.7329 34.4051L27.3117 34.791L31.0738 31.8971L31.1702 29.0032L27.6011 30.0643Z" fill="#F5841F" stroke="#F5841F" stroke-width="0.25" stroke-linecap="round" stroke-linejoin="round"/>
<path d="M18.8232 29.0032L18.9197 31.8971L22.6818 34.791L23.2605 34.4051L22.3924 30.0643L18.8232 29.0032Z" fill="#F5841F" stroke="#F5841F" stroke-width="0.25" stroke-linecap="round" stroke-linejoin="round"/>
<path d="M27.6977 38.8425V37.6849L27.4084 37.3955H22.5852L22.2958 37.6849V38.8425L18.3408 36.9132L19.7878 38.0708L22.5852 40H27.5048L30.3987 38.0708L31.7492 36.9132L27.6977 38.8425Z" fill="#C0AC9D" stroke="#C0AC9D" stroke-width="0.25" stroke-linecap="round" stroke-linejoin="round"/>
<path d="M27.4084 34.791L26.8297 34.4052H23.2605L22.6818 34.791L22.2959 37.5884L22.5853 37.299H27.4084L27.6978 37.5884L27.4084 34.791Z" fill="#161616" stroke="#161616" stroke-width="0.25" stroke-linecap="round" stroke-linejoin="round"/>
<path d="M40.1413 20.0322L41.2024 14.8232L39.5626 10L27.4082 19.0675L32.1349 23.0225L38.7909 24.9518L40.2378 23.2155L39.5626 22.8296L40.6237 21.865L39.852 21.2862L40.913 20.5145L40.1413 20.0322Z" fill="#763E1A" stroke="#763E1A" stroke-width="0.25" stroke-linecap="round" stroke-linejoin="round"/>
<path d="M8.79102 14.8232L9.85211 20.0322L9.17687 20.5145L10.238 21.2862L9.46626 21.865L10.5274 22.8296L9.85211 23.3119L11.2991 25.0483L17.955 23.119L22.6817 19.164L10.4309 10L8.79102 14.8232Z" fill="#763E1A" stroke="#763E1A" stroke-width="0.25" stroke-linecap="round" stroke-linejoin="round"/>
<path d="M38.791 24.9517L32.135 23.0225L34.1608 26.0128L31.1704 31.8971L35.1254 31.8006H41.0097L38.791 24.9517Z" fill="#F5841F" stroke="#F5841F" stroke-width="0.25" stroke-linecap="round" stroke-linejoin="round"/>
<path d="M17.9552 23.0225L11.2992 24.9517L9.08057 31.8006H14.9648L18.9198 31.8971L15.9295 26.0128L17.9552 23.0225Z" fill="#F5841F" stroke="#F5841F" stroke-width="0.25" stroke-linecap="round" stroke-linejoin="round"/>
<path d="M26.9259 26.3987L27.3117 19.0675L29.241 13.8585H20.6558L22.585 19.0675L22.9709 26.3987L23.1638 28.7138V34.4052H26.7329V28.7138L26.9259 26.3987Z" fill="#F5841F" stroke="#F5841F" stroke-width="0.25" stroke-linecap="round" stroke-linejoin="round"/>
</svg>
