<svg width="24" height="24" viewBox="0 0 24 24" fill="none" xmlns="http://www.w3.org/2000/svg">
<g clip-path="url(#clip0_514_2379)">
<path d="M12 28C20.8366 28 28 20.8366 28 12C28 3.16344 20.8366 -4 12 -4C3.16344 -4 -4 3.16344 -4 12C-4 20.8366 3.16344 28 12 28Z" fill="white"/>
<g clip-path="url(#clip1_514_2379)">
<path d="M15.8385 8.87167C15.5286 8.68063 15.1302 8.68063 14.776 8.87167L12.2969 10.4478L10.6146 11.4508L8.17969 13.0269C7.86979 13.2179 7.47135 13.2179 7.11719 13.0269L5.21354 11.7851C4.90365 11.5941 4.68229 11.212 4.68229 10.7821V8.39406C4.68229 8.01197 4.85937 7.62988 5.21354 7.39108L7.11719 6.19705C7.42708 6.006 7.82552 6.006 8.17969 6.19705L10.0833 7.43884C10.3932 7.62988 10.6146 8.01197 10.6146 8.44182V10.0179L12.2969 8.9672V7.34332C12.2969 6.96123 12.1198 6.57914 11.7656 6.34033L8.22396 4.09555C7.91406 3.90451 7.51562 3.90451 7.16146 4.09555L3.53125 6.38809C3.17708 6.57914 3 6.96123 3 7.34332V11.8329C3 12.215 3.17708 12.597 3.53125 12.8359L7.11719 15.0806C7.42708 15.2717 7.82552 15.2717 8.17969 15.0806L10.6146 13.5523L12.2969 12.5015L14.7318 10.9732C15.0417 10.7821 15.4401 10.7821 15.7943 10.9732L17.6979 12.1672C18.0078 12.3582 18.2292 12.7403 18.2292 13.1702V15.5582C18.2292 15.9403 18.0521 16.3224 17.6979 16.5612L15.8385 17.7553C15.5286 17.9463 15.1302 17.9463 14.776 17.7553L12.8724 16.5612C12.5625 16.3702 12.3411 15.9881 12.3411 15.5582V14.0299L10.6589 15.0806V16.6567C10.6589 17.0388 10.8359 17.4209 11.1901 17.6597L14.776 19.9045C15.0859 20.0956 15.4844 20.0956 15.8385 19.9045L19.4245 17.6597C19.7344 17.4687 19.9557 17.0866 19.9557 16.6567V12.1194C19.9557 11.7373 19.7786 11.3553 19.4245 11.1164L15.8385 8.87167Z" fill="#8247E5"/>
</g>
</g>
<defs>
<clipPath id="clip0_514_2379">
<rect width="24" height="24" rx="12" fill="white"/>
</clipPath>
<clipPath id="clip1_514_2379">
<rect width="17" height="16" fill="white" transform="translate(3 4)"/>
</clipPath>
</defs>
</svg>
